HIERARCHY
ROOT root
{
	OFFSET 0.000000 0.000000 0.000000
	CHANNELS 6 Xposition Yposition Zposition Zrotation Yrotation Xrotation
	JOINT lhip
	{
		OFFSET 0.058581 -0.082280 -0.017664
		CHANNELS 3 Zrotation Yrotation Xrotation
		JOINT lknee
		{
			OFFSET 0.043451 -0.386469 0.008037
			CHANNELS 3 Zrotation Yrotation Xrotation
			JOINT lankle
			{
				OFFSET -0.014790 -0.426874 -0.037428
				CHANNELS 3 Zrotation Yrotation Xrotation
				JOINT ltoe
				{
					OFFSET 0.041054 -0.060286 0.122042
					CHANNELS 3 Zrotation Yrotation Xrotation
					End Site
					{
						OFFSET 0.000000 0.000000 0.000000
					}
				}
			}
		}
	}
	JOINT rhip
	{
		OFFSET -0.060310 -0.090513 -0.013543
		CHANNELS 3 Zrotation Yrotation Xrotation
		JOINT rknee
		{
			OFFSET -0.043257 -0.383688 -0.004843
			CHANNELS 3 Zrotation Yrotation Xrotation
			JOINT rankle
			{
				OFFSET 0.019056 -0.420046 -0.034562
				CHANNELS 3 Zrotation Yrotation Xrotation
				JOINT rtoe
				{
					OFFSET -0.034840 -0.062106 0.130323
					CHANNELS 3 Zrotation Yrotation Xrotation
					End Site
					{
						OFFSET 0.000000 0.000000 0.000000
					}
				}
			}
		}
	}
	JOINT lowerback
	{
		OFFSET 0.004439 0.124404 -0.038385
		CHANNELS 3 Zrotation Yrotation Xrotation
		JOINT upperback
		{
			OFFSET 0.004488 0.137956 0.026820
			CHANNELS 3 Zrotation Yrotation Xrotation
			JOINT chest
			{
				OFFSET -0.002265 0.056032 0.002855
				CHANNELS 3 Zrotation Yrotation Xrotation
				JOINT lowerneck
				{
					OFFSET -0.013390 0.211636 -0.033468
					CHANNELS 3 Zrotation Yrotation Xrotation
					JOINT upperneck
					{
						OFFSET 0.010113 0.088937 0.050410
						CHANNELS 3 Zrotation Yrotation Xrotation
						End Site
						{
							OFFSET 0.000000 0.000000 0.000000
						}
					}
				}
				JOINT lclavicle
				{
					OFFSET 0.071702 0.114000 -0.018898
					CHANNELS 3 Zrotation Yrotation Xrotation
					JOINT lshoulder
					{
						OFFSET 0.122921 0.045205 -0.019046
						CHANNELS 3 Zrotation Yrotation Xrotation
						JOINT lelbow
						{
							OFFSET 0.255332 -0.015649 -0.022946
							CHANNELS 3 Zrotation Yrotation Xrotation
							JOINT lwrist
							{
								OFFSET 0.265709 0.012698 -0.007375
								CHANNELS 3 Zrotation Yrotation Xrotation
								End Site
								{
									OFFSET 0.000000 0.000000 0.000000
								}
							}
						}
					}
				}
				JOINT rclavicle
				{
					OFFSET -0.082954 0.112472 -0.023707
					CHANNELS 3 Zrotation Yrotation Xrotation
					JOINT rshoulder
					{
						OFFSET -0.113228 0.046853 -0.008472
						CHANNELS 3 Zrotation Yrotation Xrotation
						JOINT relbow
						{
							OFFSET -0.260127 -0.014369 -0.031269
							CHANNELS 3 Zrotation Yrotation Xrotation
							JOINT rwrist
							{
								OFFSET -0.269108 0.006794 -0.006027
								CHANNELS 3 Zrotation Yrotation Xrotation
								End Site
								{
									OFFSET 0.000000 0.000000 0.000000
								}
							}
						}
					}
				}
			}
		}
	}
}
MOTION
Frames: 16
Frame Time: 0.033333
0.267719 0.150317 0.976076 81.792295 1.922253 84.738790 11.756125 4.527265 6.156865 1.344398 0.153347 4.482252 -1.735429 9.107645 -10.903114 0.000000 -0.000000 0.000000 -6.053836 -1.248899 6.248453 2.143718 -0.750280 0.056622 1.885021 -2.436814 -9.507375 0.000000 -0.000000 0.000000 1.497450 -1.325096 1.836400 3.265945 -7.321801 7.958047 1.401770 -3.906306 -6.309493 -5.931526 -11.940808 12.489338 8.561599 -17.193210 -19.553749 -23.761962 -10.957956 5.488970 -57.510379 -9.099921 15.319454 7.986107 -24.742601 1.189385 -14.738887 -16.760268 4.784068 18.802813 13.202914 1.930247 55.296947 -0.762710 11.695488 -8.515946 17.561546 -1.092647 14.646915 14.634266 -6.999333 
0.266348 0.149812 0.974707 82.222466 1.861734 84.954627 11.768730 4.516003 5.533560 1.303386 -0.000115 4.738000 -1.766982 8.895986 -10.832003 0.000000 -0.000000 0.000000 -6.166529 -1.404545 5.840515 2.250157 -0.933817 0.351831 2.377825 -2.557191 -9.470490 0.000000 -0.000000 0.000000 1.173825 -1.390616 1.877171 3.293694 -7.396030 6.942574 1.614071 -4.108664 -5.496173 -6.085941 -11.763929 12.644031 8.377258 -17.103334 -19.180920 -23.493137 -11.125153 5.715941 -58.220633 -9.479928 15.420475 8.004261 -24.676918 1.400497 -14.062905 -16.750581 4.004161 19.051908 13.225622 1.966740 55.746284 -0.268153 11.746000 -8.495985 17.426044 -1.005702 14.073493 14.504916 -7.513886 
0.265642 0.149324 0.974224 82.462109 1.850736 85.004287 11.806050 4.484551 5.369962 1.275236 -0.089288 4.700776 -1.769563 8.787511 -10.782774 0.000000 -0.000000 0.000000 -6.161301 -1.456277 5.689535 2.276245 -1.035209 0.544988 2.442099 -2.606180 -9.527522 0.000000 -0.000000 0.000000 1.041545 -1.415413 1.837884 3.296984 -7.404112 6.775235 1.664477 -4.193683 -5.343682 -6.142206 -11.541884 12.767854 8.192156 -17.085750 -18.833842 -23.419692 -11.057658 5.765116 -58.689681 -9.559827 15.571030 7.957028 -24.623570 1.568487 -13.932010 -16.749469 3.840074 19.261973 13.168235 1.906932 56.173525 0.059174 11.938608 -8.378844 17.563738 -0.824569 13.977483 14.417406 -7.601041 
0.265267 0.148894 0.973701 82.804964 1.870939 84.994630 11.836419 4.384234 5.318965 1.295557 -0.225352 4.560194 -1.767615 8.671860 -10.744001 0.000000 -0.000000 0.000000 -6.115408 -1.444688 5.788058 2.298299 -1.216295 0.465724 2.465986 -2.715701 -9.501063 0.000000 -0.000000 0.000000 0.938927 -1.414807 1.754011 3.270175 -7.392156 6.757866 1.698151 -4.229846 -5.225913 -6.142416 -11.467588 12.900201 8.079352 -17.097688 -18.560124 -23.421529 -10.877335 5.884453 -59.108014 -9.496936 15.560823 7.925406 -24.579614 1.725417 -13.961143 -16.770989 3.702398 19.422453 13.172944 1.937853 56.537435 0.289858 12.181871 -8.089734 18.065269 -0.311319 13.874373 14.440621 -7.524987 
0.265149 0.148754 0.973462 82.979373 1.907078 84.978460 11.867016 4.334912 5.322530 1.323880 -0.303725 4.471019 -1.760990 8.625982 -10.740329 0.000000 -0.000000 0.000000 -6.076327 -1.472040 5.896155 2.316546 -1.299639 0.352603 2.468494 -2.760269 -9.472981 0.000000 -0.000000 0.000000 0.914647 -1.374621 1.736084 3.253205 -7.353631 6.769103 1.699730 -4.210794 -5.176654 -6.076303 -11.532593 12.936391 8.074226 -17.115409 -18.460697 -23.449527 -10.725961 5.930464 -59.261424 -9.354708 15.511583 7.857508 -24.493397 1.738962 -13.918113 -16.770737 3.587998 19.462010 13.181885 1.955768 56.671235 0.354737 12.345133 -7.853965 18.373481 0.079208 13.791961 14.473598 -7.371849 
0.265150 0.148599 0.973149 83.116623 1.949814 84.965428 11.904056 4.291432 5.354517 1.355405 -0.384017 4.349597 -1.742450 8.601766 -10.719202 0.000000 -0.000000 0.000000 -6.039645 -1.503778 6.036441 2.348044 -1.351565 0.160016 2.478541 -2.807813 -9.407276 0.000000 -0.000000 0.000000 0.877908 -1.243418 1.721123 3.228999 -7.224832 6.772004 1.689652 -4.160556 -5.114310 -5.925332 -11.709342 12.961341 8.122319 -17.152826 -18.357368 -23.493330 -10.490439 5.947842 -59.345793 -9.107415 15.479352 7.723381 -24.152720 1.864198 -13.989852 -16.762782 3.577131 19.474455 13.161644 1.939365 56.780335 0.449612 12.526990 -7.609974 18.615705 0.485068 13.837086 14.550623 -7.240470 
0.265059 0.148524 0.972876 83.256208 1.996741 85.025665 11.938408 4.230994 5.239190 1.373915 -0.456257 4.336403 -1.726673 8.584295 -10.698708 0.000000 -0.000000 0.000000 -6.001185 -1.566384 6.091067 2.377061 -1.375425 -0.044803 2.495947 -2.862995 -9.312774 0.000000 -0.000000 0.000000 0.830489 -1.076127 1.625504 3.225348 -7.100836 6.808704 1.676537 -4.095247 -5.076562 -5.780955 -11.872166 13.003165 8.175373 -17.199944 -18.279959 -23.526092 -10.233222 5.932340 -59.368814 -8.839639 15.446965 7.672408 -23.463727 1.929854 -14.321858 -16.670913 3.766890 19.511961 13.171616 1.893585 56.795542 0.607333 12.661476 -7.508876 18.527804 0.739370 14.045009 14.527182 -6.903422 
0.265133 0.148506 0.972653 83.379179 2.049476 85.107485 11.971508 4.189068 5.107658 1.390208 -0.528169 4.340434 -1.732851 8.578832 -10.680785 0.000000 -0.000000 0.000000 -5.953091 -1.653418 6.134832 2.389455 -1.354019 -0.260337 2.524391 -2.927990 -9.207272 0.000000 -0.000000 0.000000 0.796904 -0.919222 1.477141 3.232879 -7.005012 6.864937 1.665672 -4.018271 -5.034019 -5.710605 -11.970289 13.068446 8.191977 -17.258537 -18.258068 -23.469954 -9.942741 5.877499 -59.459444 -8.565133 15.347129 7.774924 -22.401209 1.747219 -14.751910 -16.515494 3.897847 19.535477 13.198956 1.831592 56.732122 0.835842 12.725869 -7.464080 18.128004 0.903917 14.261724 14.438737 -6.437759 
0.265270 0.148611 0.972447 83.483097 2.101384 85.174031 11.994746 4.158146 4.995126 1.407979 -0.601118 4.354482 -1.726809 8.585263 -10.675838 0.000000 -0.000000 0.000000 -5.917838 -1.744816 6.190824 2.405522 -1.307234 -0.462843 2.546733 -2.987171 -9.111384 0.000000 -0.000000 0.000000 0.822209 -0.787421 1.399008 3.223366 -6.917308 6.834521 1.648226 -3.953375 -4.941032 -5.688406 -11.946701 13.081035 8.090660 -17.160465 -18.265147 -23.356002 -9.663465 5.765320 -59.514166 -8.308744 15.144780 7.925459 -21.085956 1.286629 -15.030622 -16.325245 3.764686 19.475698 13.201558 1.749905 56.665795 1.080185 12.758218 -7.426247 17.681861 0.924417 14.369028 14.316452 -6.093522 
0.265381 0.148898 0.972226 83.526397 2.144091 85.220894 12.013427 4.133816 4.906043 1.397138 -0.713187 4.402553 -1.694190 8.649364 -10.694383 0.000000 -0.000000 0.000000 -5.896836 -1.747604 6.217308 2.427337 -1.281622 -0.596764 2.565037 -3.064831 -9.087783 0.000000 -0.000000 0.000000 0.897309 -0.671067 1.373090 3.183595 -6.822194 6.816108 1.667536 -3.869801 -4.796731 -5.701297 -11.178094 12.996008 7.645384 -16.302105 -18.299982 -23.209193 -9.366071 5.609473 -59.549349 -7.893817 14.662540 8.392465 -19.478994 0.320055 -15.358879 -16.066354 3.326262 19.310583 13.177558 1.711058 56.579499 1.263431 12.714741 -7.552510 17.699984 0.689191 14.504768 14.311287 -5.915788 
0.265465 0.149194 0.972081 83.537213 2.168718 85.249901 12.017856 4.118434 4.859584 1.383187 -0.814640 4.432853 -1.649097 8.714597 -10.725135 0.000000 -0.000000 0.000000 -5.886519 -1.720319 6.164598 2.430133 -1.317307 -0.549310 2.589147 -3.078989 -9.166558 0.000000 -0.000000 0.000000 0.975449 -0.626163 1.408703 3.156790 -6.783054 6.823436 1.746607 -3.847702 -4.661853 -5.768372 -9.613602 12.771509 6.982249 -14.792767 -18.350183 -23.034719 -9.116402 5.460025 -59.632362 -7.429010 13.960495 8.985663 -18.719255 -1.250866 -15.117071 -15.849812 2.213504 19.161474 12.946358 1.741930 56.464324 1.258254 12.518856 -7.804889 18.683738 0.126836 14.412973 14.527162 -6.111943 
0.265537 0.149549 0.971727 83.540545 2.207974 85.264061 12.008817 4.086183 4.854810 1.400796 -0.897066 4.394344 -1.598326 8.784570 -10.690586 0.000000 -0.000000 0.000000 -5.831419 -1.668507 6.039388 2.385472 -1.427093 -0.357500 2.571592 -3.054845 -9.322545 0.000000 -0.000000 0.000000 1.139480 -0.652402 1.571114 3.103091 -6.758756 6.744791 1.867960 -3.862140 -4.422484 -5.891234 -7.253224 12.372439 6.043252 -12.579889 -18.528450 -22.939239 -8.746991 5.247895 -59.675929 -6.767266 13.028499 9.904270 -19.050481 -3.123367 -14.681271 -15.664950 0.591933 19.091289 12.458127 1.800865 56.197448 1.011712 12.260313 -8.249266 21.257097 -0.669774 14.253094 14.994378 -6.831462 
0.265491 0.149716 0.971529 83.553915 2.243331 85.223515 11.997206 3.997636 4.877216 1.421770 -0.979604 4.440301 -1.524590 8.851249 -10.720461 0.000000 -0.000000 0.000000 -5.754904 -1.579380 5.932568 2.299374 -1.640657 -0.071089 2.504040 -2.979628 -9.547023 0.000000 -0.000000 0.000000 1.388058 -0.753271 1.896756 2.980009 -6.728641 6.607809 2.015439 -3.948914 -4.103854 -6.122143 -4.257946 11.819141 4.820164 -9.829070 -18.871952 -22.942597 -8.152708 5.076558 -59.589048 -5.774383 11.870420 11.285113 -21.265939 -5.043286 -13.826231 -15.745435 -1.383027 18.984236 11.659944 1.962525 55.980544 0.397137 12.009947 -8.822118 26.165253 -1.459116 13.546979 15.968116 -8.334718 
0.265219 0.149661 0.971569 83.608907 2.243051 85.229397 11.966664 3.842970 4.670842 1.388133 -0.991409 4.820396 -1.406171 8.874205 -10.888201 0.000000 -0.000000 0.000000 -5.709534 -1.464277 5.757555 2.203039 -2.014346 0.265721 2.402030 -2.830312 -9.818885 0.000000 -0.000000 0.000000 1.641028 -0.894395 2.326338 2.829823 -6.659823 6.393113 2.166925 -4.083138 -3.694312 -6.417635 -1.023985 11.004379 3.419352 -7.035191 -19.438191 -22.837309 -7.118473 4.834896 -59.567585 -4.503986 10.552442 13.173369 -25.970569 -7.156927 -11.988212 -16.221792 -3.912912 18.818484 10.479999 2.192976 55.968003 -0.539211 11.784291 -9.885674 33.585208 -2.568358 11.813113 17.604045 -10.814985 
0.264736 0.149625 0.971829 83.735068 2.182183 85.269265 11.912184 3.605364 4.170148 1.249149 -0.903631 5.638329 -1.276262 8.823002 -11.196965 0.000000 -0.000000 0.000000 -5.731339 -1.341679 5.558578 2.084167 -2.602279 0.575119 2.319892 -2.576454 -10.013653 0.000000 -0.000000 0.000000 1.857333 -1.000855 2.888704 2.611654 -6.468365 5.987746 2.298176 -4.175058 -3.167032 -6.806166 2.191554 10.044428 1.927595 -4.635620 -20.026768 -22.524277 -5.690302 4.614995 -59.665965 -3.058449 9.362293 16.062231 -33.385696 -8.943994 -9.537365 -17.375544 -6.339232 18.569727 9.022470 2.357370 56.417825 -1.583600 11.463791 -12.176513 42.877715 -4.243448 9.197727 19.575502 -14.162493 
0.264643 0.149586 0.972310 84.325627 2.237792 86.431230 11.950435 4.485058 1.588416 0.715790 -3.459012 7.947230 -2.222357 10.286109 -13.413908 0.000000 -0.000000 0.000000 -5.850747 -1.776810 4.331719 2.520021 -1.955709 0.802993 2.361315 -3.619249 -10.589150 0.000000 -0.000000 0.000000 1.237264 -0.772008 0.957109 3.826522 -6.889566 6.848964 1.911065 -3.604808 -2.051099 -7.793342 3.669334 9.000411 0.427696 -2.282945 -21.546951 -21.701639 -4.567636 3.746249 -60.950734 -2.152739 12.837969 22.782433 -39.904068 -13.870714 -0.421548 -22.371211 -10.586151 17.055907 7.183221 -0.544796 57.136509 -3.977338 12.242969 -12.508014 53.313866 -2.727139 -0.685516 22.455944 -22.885003 
